<svg xmlns="http://www.w3.org/2000/svg" xmlns:xlink="http://www.w3.org/1999/xlink" version="1.1" x="0px" y="0px" viewBox="0 0 66 82.5" enable-background="new 0 0 66 66" xml:space="preserve"><g><g><path d="M64.5,43.5c-0.9-2-3.2-3-5.2-1.8l-11.8,7.8c-3.9,2.5-6.5,3-13.2,5.8c-1.7,0.7-2.6-1.3-3.8-2.2c-0.5-0.7,0-1.8,0.8-1.8h7.2    c2.1,0,3.8-1.9,3.8-4.2c0-2.3-1.7-4.2-3.8-4.2h-7.7c-0.2,0-0.6,0-0.9-0.4c-2.8-3.6-7.9-3.6-11.3-3.1v21.4l2-0.1l12.3,4.4    c2,0.7,4.3,0.5,6.3-0.7L62.9,49C64.6,48,65.4,45.6,64.5,43.5z"/></g><g><path d="M0.7,37.9v24.3c0,0.5,0.5,1,1,1h13.8c0.6,0,1-0.5,1-1V37.9c0-0.6-0.4-1-1-1H1.7C1.1,36.9,0.7,37.4,0.7,37.9z"/></g><g><path d="M64.9,15.9L45.1,0.7c-0.4-0.3-0.9-0.3-1.2,0L32.8,9.2l1.1,1.1c0.1,0.1,0.2,0.3,0.3,0.4l10.3-7.9l19.2,14.7    c0.2,0.1,0.4,0.2,0.6,0.2c0.3,0,0.6-0.1,0.8-0.4C65.5,16.9,65.4,16.2,64.9,15.9z"/></g><g><path d="M58.6,4.1h-4.7c-0.3,0-0.5,0.1-0.7,0.3l0,0l6.4,4.9V5.1C59.6,4.5,59.2,4.1,58.6,4.1z"/></g><g><path d="M42.7,30.8h-2.2v8.3h8V22.6h-8v6.3h2.2c0.6,0,1,0.4,1,1C43.7,30.4,43.2,30.8,42.7,30.8z"/></g><g><path d="M44.5,5.3l-9.7,7.4v22.2c0,1.7-1.3,3-3,3h-4.6v0.2c0,0.5,0.5,1,1,1h10.3V21.6c0-0.6,0.4-1,1-1h10c0.6,0,1,0.4,1,1v17.5    h10.3c1.9,0,0.6-2,1-20.5L44.5,5.3z"/></g><g><circle cx="22.8" cy="12.5" r="1.3"/></g><g><path d="M22.4,2c-0.3,0-0.5,0.1-0.7,0.3l-8.6,9.4c-0.2,0.2-0.3,0.4-0.3,0.7v22.5c0,0.6,0.4,1,1,1h18c0.5,0,1-0.4,1-1V12.4    c0-0.3-0.1-0.5-0.3-0.7l-9.3-9.4C23,2.1,22.7,2,22.4,2z M23.3,30.8v1.6h-1v-1.6c-0.9,0-1.8-0.3-2.4-0.7l0.4-1    c0.6,0.4,1.4,0.7,2.2,0.7c1.1,0,1.9-0.6,1.9-1.5c0-0.9-0.6-1.4-1.8-1.9C21,25.7,20,25,20,23.7c0-1.3,0.9-2.3,2.4-2.5v-1.6h1v1.5    c0.9,0,1.6,0.3,2,0.5l-0.4,1c-0.3-0.2-1-0.5-2-0.5c-1.2,0-1.7,0.7-1.7,1.3c0,0.8,0.6,1.2,1.9,1.8c1.6,0.7,2.4,1.5,2.4,2.9    C25.7,29.3,24.9,30.5,23.3,30.8z M26.1,12.5c0,1.8-1.5,3.3-3.3,3.3c-1.8,0-3.3-1.5-3.3-3.3c0-1.8,1.5-3.3,3.3-3.3    C24.6,9.2,26.1,10.7,26.1,12.5z"/></g></g> </svg>